<svg width="800" height="600" xmlns="http://www.w3.org/2000/svg">
<rect width="100%" height="100%" fill="white"/>
<line x1="50" y1="-17689.552683983504" x2="750" y2="-17689.552683983504" stroke="black" stroke-width="2"/>
<line x1="317514.1114683312" y1="50" x2="317514.1114683312" y2="550" stroke="black" stroke-width="2"/>
<polyline points="317514.1114683312,-17689.552683983504 317917.1417713615,-17690.436032111447 318320.1720743918,-17691.31671254104 318723.20237742213,-17692.192066525513 319126.2326804524,-17693.059453189664 319529.2629834827,-17693.91625838698 319932.293286513,-17694.759903462473 320335.32358954335,-17695.58785389063 320738.3538925736,-17696.39762775783 321141.38419560395,-17697.18680405958 321544.4144986343,-17697.953030783294 321947.4448016645,-17698.69403274824 322350.47510469484,-17699.407619175196 322753.5054077251,-17700.0916909592 323156.53571075544,-17700.744247620016 323559.5660137858,-17701.363393905933 323962.59631681605,-17701.947346027966 324365.6266198464,-17702.49443750266 324768.65692287666,-17703.00312458329 325171.68722590694,-17703.471991260558 325574.71752893727,-17703.899753815684 325977.7478319676,-17704.28526491012 326380.7781349979,-17704.627517198027 326783.8084380282,-17704.925646449257 327186.8387410584,-17705.178934172363 327589.86904408876,-17705.386809728952 327992.8993471191,-17705.548851932614 328395.9296501494,-17705.664790127365 328798.9599531797,-17705.734504742562 329201.99025621,-17705.758027323016 329605.02055924025,-17705.735540034973 330008.0508622706,-17705.66737465055 330411.0811653009,-17705.554011014916 330814.1114683312,-17705.396075002613 331217.1417713615,-17705.194335970962 331620.17207439186,-17704.949703720566 332023.2023774221,-17704.6632249744 332426.23268045246,-17704.336079388977 332829.26298348274,-17703.969575112464 333232.293286513,-17703.565143906446 333635.32358954335,-17703.124335849505 334038.3538925737,-17702.648813642118 334441.38419560395,-17702.14034653409 334844.4144986342,-17701.60080389672 335247.4448016645,-17701.03214846334 335650.47510469484,-17700.436429263074 336053.50540772517,-17699.81577427342 336456.5357107554,-17699.17238281861 336859.5660137858,-17698.508517741313 337262.59631681605,-17697.826497376063 337665.6266198463,-17691.212204884134 338068.65692287666,-17688.953757358107 338471.687225907,-17686.83006158186 338874.71752893727,-17684.9067019279 339277.74783196754,-17683.241060660024 339680.77813499793,-17681.88048604893 340083.80843802815,-17680.860833626703 340486.8387410585,-17680.205427428806 340889.8690440888,-17679.92447203856 341292.8993471191,-17680.01492876515 341695.9296501494,-17680.460850695465 342098.95995317964,-17681.234151873712 342501.99025621003,-17682.295765465708 342905.0205592403,-17683.597124097134 343308.0508622706,-17685.081871754643 343711.08116530086,-17686.687689137703 344114.11146833125,-17688.348080607935 344517.14177136146,-17689.993927042244 344920.1720743918,-17691.55454932869 345323.20237742213,-17692.95794396674 345726.2326804524,-17694.129734160902 346129.26298348274,-17694.99021177597 346532.29328651296,-17695.448607109625 346935.32358954335,-17695.393387355394 347338.3538925736,-17694.67691481494 347741.38419560395,-17693.09214510639 348144.4144986342,-17690.33815232402 348547.44480166456,-17685.970052925433 348950.4751046949,-17679.3272611779 349353.5054077251,-17669.43181639334 349756.5357107555,-17654.84561130099 350159.5660137857,-17633.471514302226 350562.59631681605,-17602.27835603362 350965.6266198464,-17556.9232185035 351368.65692287666,-17491.23602100234 351771.68722590694,-17396.520544712654 352174.71752893727,-17260.612167671075 352577.74783196754,-17066.61494762441 352980.7781349979,-16791.218384074105 353383.8084380282,-16402.466110899917 353786.8387410585,-15856.813586929553 354189.8690440888,-15095.267962912374 354592.89934711903,-14038.348790802558 354995.92965014937,-12579.540813418063 355398.9599531797,-10576.827001967056 355801.99025621,-7841.788060374648 356205.0205592403,-4125.629963646378 356608.0508622706,898.6507658072662 357011.081165301,7658.9387127216705 357414.1114683312,-17689.552683983504 " fill="none" stroke="blue" stroke-width="2"/>
<polyline points="317514.1114683312,-17717.40337021158 317917.1417713615,-17717.39635997982 318320.1720743918,-17717.375343399584 318723.20237742213,-17717.340362780487 319126.2326804524,-17717.291488520266 319529.2629834827,-17717.22881892762 319932.293286513,-17717.152479974946 320335.32358954335,-17717.06262498165 320738.3538925736,-17716.959434228815 321141.38419560395,-17716.843114506457 321544.4144986343,-17716.713898594582 321947.4448016645,-17716.572044679455 322350.47510469484,-17716.41783570681 322753.5054077251,-17716.25157867376 323156.53571075544,-17716.073603861412 323559.5660137858,-17715.884264010365 323962.59631681605,-17715.68393344133 324365.6266198464,-17715.47300712344 324768.65692287666,-17715.25189969275 325171.68722590694,-17715.02104442377 325574.71752893727,-17714.780892156792 325977.7478319676,-17714.531910184127 326380.7781349979,-17714.274581098238 326783.8084380282,-17714.009401605053 327186.8387410584,-17713.736881305675 327589.86904408876,-17713.45754144997 327992.8993471191,-17713.17191366536 328395.9296501494,-17712.880538664405 328798.9599531797,-17712.583964934725 329201.99025621,-17712.282747414836 329605.02055924025,-17711.977446159533 330008.0508622706,-17711.668624998507 330411.0811653009,-17711.35685019177 330814.1114683312,-17711.042689085654 331217.1417713615,-17710.7267087729 331620.17207439186,-17710.409474760574 332023.2023774221,-17710.091549649267 332426.23268045246,-17709.773491827244 332829.26298348274,-17709.455854182903 333232.293286513,-17709.13918283905 333635.32358954335,-17708.824015912298 334038.3538925737,-17708.510882300787 334441.38419560395,-17708.200300503526 334844.4144986342,-17707.892777474248 335247.4448016645,-17707.588807512875 335650.47510469484,-17707.288871197303 336053.50540772517,-17706.993434358268 336456.5357107554,-17706.70294709985 336859.5660137858,-17706.417842868028 337262.59631681605,-17706.138537569543 337665.6266198463,-17703.92823675404 338068.65692287666,-17703.323884633155 338471.687225907,-17702.811519578347 338874.71752893727,-17702.39360868238 339277.74783196754,-17702.070352974453 339680.77813499793,-17701.839780728988 340083.80843802815,-17701.697896142083 340486.8387410585,-17701.63887876464 340889.8690440888,-17701.655328357403 341292.8993471191,-17701.738549617043 341695.9296501494,-17701.878871666642 342098.95995317964,-17702.065998498747 342501.99025621003,-17702.289388946072 342905.0205592403,-17702.53866854219 343308.0508622706,-17702.80408122103 343711.08116530086,-17703.07699670016 344114.11146833125,-17703.350500257 344517.14177136146,-17703.6201062774 344920.1720743918,-17703.88465649863 345323.20237742213,-17704.147489624997 345726.2326804524,-17704.41800264585 346129.26298348274,-17704.713767818248 346532.29328651296,-17705.06342546523 346935.32358954335,-17705.510644637667 347338.3538925736,-17706.119535129408 347741.38419560395,-17706.982009957606 348144.4144986342,-17708.227742795472 348547.44480166456,-17710.037546627347 348950.4751046949,-17712.661225995103 349353.5054077251,-17716.441234966976 349756.5357107555,-17721.84381738134 350159.5660137857,-17729.499727871826 350562.59631681605,-17740.25714667666 350965.6266198464,-17755.25002569762 351368.65692287666,-17775.98585785435 351771.68722590694,-17804.457769693876 352174.71752893727,-17843.28692511797 352577.74783196754,-17895.902526481757 352980.7781349979,-17966.768242982667 353383.8084380282,-18061.66572475705 353786.8387410585,-18188.048019283062 354189.8690440888,-18355.47824526627 354592.89934711903,-18576.171855346267 354995.92965014937,-18865.66429703832 355398.9599531797,-19243.629933496857 355801.99025621,-19734.88279277058 356205.0205592403,-20370.5951664805 356608.0508622706,-21189.776376910562 357011.081165301,-22241.061287278328 357414.1114683312,-17717.40337021158 " fill="none" stroke="red" stroke-width="2"/>
</svg>